<?xml version="1.0" encoding="utf-8"?>
<!-- Generator: Adobe Illustrator 21.0.2, SVG Export Plug-In . SVG Version: 6.00 Build 0)  -->
<svg version="1.1" id="Layer_1" xmlns="http://www.w3.org/2000/svg" xmlns:xlink="http://www.w3.org/1999/xlink" x="0px" y="0px"
	 viewBox="0 0 420 420" style="enable-background:new 0 0 420 420;" xml:space="preserve">
<style type="text/css">
	.st0{fill:none;stroke:#555555;stroke-width:15;}
</style>
<path class="st0" d="M209,15C101.3,15.6,14.5,103.3,15,211c0.6,107.7,88.3,194.5,196,194s194.5-88.3,194-196
	c-0.5-106.9-87.1-193.4-194-194H209z M210,15v390 M405,210H15 M59,90c90.3,64.5,211.7,64.5,302,0 M361,330
	c-90.3-64.5-211.7-64.5-302,0 M195,20C89.5,109.1,76.2,266.8,165.3,372.3c9,10.7,19,20.6,29.7,29.7 M225,402
	c105.5-89.1,118.8-246.8,29.7-352.3C245.6,39,235.7,29,225,20"/>
</svg>
